<?xml version="1.0" encoding="UTF-8" standalone="no"?><!DOCTYPE svg PUBLIC "-//W3C//DTD SVG 1.1//EN" "http://www.w3.org/Graphics/SVG/1.1/DTD/svg11.dtd"><svg width="100%" height="100%" viewBox="300 180 1650 1900" version="1.1" xmlns="http://www.w3.org/2000/svg" xmlns:xlink="http://www.w3.org/1999/xlink" xml:space="preserve" xmlns:serif="http://www.serif.com/" style="fill:#7BABFF;fill-rule:evenodd;clip-rule:evenodd;stroke-linejoin:round;stroke-miterlimit:2;"><path d="M1059.94,221.377l45.145,78.194l-741.483,428.096l-45.146,-78.194l741.484,-428.096Z"/><path d="M1759.07,703.056l45.146,78.194l-654.05,377.616l-45.145,-78.194l654.049,-377.616Z"/><path d="M1713.97,312.475l33.829,58.594l-236.72,136.72l-33.829,-58.593l236.72,-136.721Z"/><path d="M1747.55,892.094l34.118,59.093l-507.148,292.802l-34.118,-59.093l507.148,-292.802Z"/><path d="M1747.55,1152.51l34.118,59.094l-507.148,292.802l-34.118,-59.094l507.148,-292.802Z"/><path d="M315.659,651.042l90.29,-0l0,937.408l-90.29,-0l-0,-937.408Z"/><path d="M1082.45,1119.82l90.291,-0l-0,755.185l-90.291,0l0,-755.185Z"/><path d="M1240.4,1184.94l67.718,-0l0,611.898l-67.718,0l-0,-611.898Z"/><path d="M1714.01,911.458l67.214,-0.863l0,613.099l-67.214,0.863l-0,-613.099Z"/><path d="M1849.25,729.213l90.291,-0l0,859.329l-90.291,-0l0,-859.329Z"/><path d="M1172.78,1979.1l-45.146,78.194l-811.819,-468.704l45.146,-78.194l811.819,468.704Z"/><path d="M1894.31,1510.39l45.145,78.194l-811.819,468.704l-45.145,-78.194l811.819,-468.704Z"/><path d="M1871.96,611.933l-45.146,78.194l-676.582,-390.625l45.145,-78.194l676.583,390.625Z"/><path d="M1150.21,1080.74l-45.145,78.194l-654.05,-377.616l45.145,-78.194l654.05,377.616Z"/><path d="M1003.64,1178.41l-33.869,58.663l-518.713,-299.479l33.869,-58.663l518.713,299.479Z"/><path d="M1037.43,1744.79l-33.869,58.662l-518.713,-299.479l33.869,-58.662l518.713,299.479Z"/><path d="M969.768,1158.85l33.829,58.594l-496.16,286.458l-33.829,-58.593l496.16,-286.459Z"/><rect x="608.924" y="638.021" width="1037.43" height="78.125"/><path d="M1082.53,364.583l90.211,0l-0,625l-90.211,0l-0,-625Z"/><path d="M1465.93,208.333l67.659,0l-0,260.417l-67.659,-0l0,-260.417Z"/><path d="M451.057,729.165l45.101,-26.041l-45.103,78.121l0.002,-52.08Z"/><path d="M1127.64,1901.04l-45.103,-26.037l90.207,-0l-45.104,26.037Z"/><path d="M1127.64,1015.62l-45.103,-26.038l90.207,-0l-45.104,26.038Z"/><path d="M1127.63,338.543l45.103,26.038l-90.206,-0l45.103,-26.038Z"/><path d="M1804.22,729.165l0.003,52.08l-45.104,-78.121l45.101,26.041Z"/><path d="M541.266,677.083l67.658,-39.062l0,78.125l-67.658,-39.063Z"/><path d="M1014.87,247.396l90.21,-52.084l0,104.167l-90.21,-52.083Z"/><path d="M1849.33,729.167l90.211,-52.084l0,104.167l-90.211,-52.083Z"/><path d="M1826.77,585.937l90.211,52.084l-90.211,52.083l0,-104.167Z"/><path d="M1150.19,195.312l90.211,52.084l-90.211,52.083l-0,-104.167Z"/><path d="M1037.43,1197.92l-67.658,39.062l0,-78.125l67.658,39.063Z"/><path d="M1781.67,872.396l-0,78.125l-67.658,-39.063l67.658,-39.062Z"/><path d="M518.713,898.437l-67.658,39.063l-0,-78.125l67.658,39.062Z"/><path d="M969.768,1783.85l67.658,-39.062l0,78.125l-67.658,-39.063Z"/><path d="M428.502,1471.35l67.658,-39.062l0,78.125l-67.658,-39.063Z"/><path d="M1240.4,1757.81l67.658,39.063l-67.658,39.062l-0,-78.125Z"/><path d="M1714.01,1484.38l67.658,39.063l-67.658,39.062l-0,-78.125Z"/><path d="M1713.57,677.083l-67.215,-39.062l0,78.125l67.215,-39.063Z"/><path d="M1466.15,169.655l-0.222,77.741l67.659,-39.063l-67.437,-38.678Z"/><path d="M1781.22,351.562l-67.214,-39.062l-0,78.125l67.214,-39.063Z"/></svg>